<?xml version="1.0" encoding="utf-8"?>
<!-- Generator: Adobe Illustrator 16.0.0, SVG Export Plug-In . SVG Version: 6.00 Build 0)  -->
<!DOCTYPE svg PUBLIC "-//W3C//DTD SVG 1.1//EN" "http://www.w3.org/Graphics/SVG/1.1/DTD/svg11.dtd">
<svg version="1.1" xmlns="http://www.w3.org/2000/svg" xmlns:xlink="http://www.w3.org/1999/xlink" x="0px" y="0px"
	 width="159.634px" height="206.832px" viewBox="0 0 159.634 206.832" enable-background="new 0 0 159.634 206.832"
	 xml:space="preserve">
<g id="Layer_1">
	<g>
		<path fill="#FFFFFF" d="M159.45,138.613l-2.678-0.093v3.417c0,2.769-0.276,2.954-2.954,2.954h-25.293
			c-4.521,0-4.613-0.094-4.613-1.57l-0.094-4.339h-2.769c-0.093,4.801,0.093,12.462,0.093,17.354c0,2.307-0.186,13.755-0.186,16.34
			l10.061,0.738l0.094-2.771l-2.399-0.553c-4.432-1.016-4.617-3.416-4.708-6.646l-0.186-12.092l14.309-0.279
			c0,1.388,0.092,2.217,0.092,3.695l0.092,4.06c0.093,2.31-0.554,3.14-5.446,3.692v2.678c11.632-0.092,12.001-0.092,14.585-0.185
			l-0.093-2.678c-4.521-0.922-4.984-1.016-5.536-2.029c-0.557-1.016-0.738-1.664-0.738-7.57v-1.569h14.214
			c1.384,0,1.569,0.093,1.569,1.477l-0.093,9.785c-0.093,0.922-0.093,4.339-0.462,4.801c-0.646,0.83-4.798,1.568-6.275,1.937v2.586
			l9.139-0.46c0.368-1.477,0.46-2.217,0.46-4.801L159.45,138.613z"/>
		<path fill="#FFFFFF" d="M140.387,69.935c-0.311-1.696-0.512-2.318-1.074-3.481c-1.777-3.651-3.646-6.438-4.701-8.183l-1.572,0.56
			l-0.715,1.065l0.764,1.989c0.922,2.322,1.043,2.572,0.79,3.106c-0.087,0.246-0.21,0.409-1.789,1.176l-23.037,11.307
			c-1.493,0.728-3.069,1.495-3.519,0.787l-2.883-4.449l-2.569,1.045l6.502,13.159l2.45-1.294l-1.803-5.181
			c5.278-3.079,6.814-3.723,12.912-6.588l5.188-2.419c2.945-1.33,4.15-2.02,7.511-3.345l-16.136,18.111
			c-4.305,4.867-5.553,5.679-7.633,7.101l1.051,2.158l3.801-0.207c5.411-0.271,17.888-1.206,29.417-2.195l-5.188,2.422
			c-0.996,0.484-5.106,2.586-6.312,3.275l-10.748,5.331c-1.495,0.726-2.076,1.008-2.48,0.179c-0.731-1.289-0.85-1.538-2.554-4.199
			l-2.492,1.212l7.917,16.064l2.45-1.293l-1.769-4.479c-0.442-1.121-0.276-1.199,1.385-2.007l25.485-12.395
			c1.742-0.848,2.152-0.637,2.961,1.022l1.653,3.403l2.491-1.211l-3.23-6.64c-1.938-3.985-2.634-4.364-4.99-4.143l-12.068,1.354
			c-3.307,0.376-10.744,0.707-16.316,0.646L140.387,69.935z"/>
		<path fill="#FFFFFF" d="M96.861,23.22c-1.253-0.597-1.977-1.003-2.863-1.5l-4.588-2.574c-0.803-0.452-4.867-2.834-7.971-4.472
			l-1.4,2.496c2.095,1.174,2.131,1.302,3.693,2.286c1.165,0.757,1.165,0.757,0.305,2.286l-6.603,11.961
			c-0.994,1.77-2.212,3.944-4.19,7.281l-3.558,6.153c-0.814,1.451-1.182,1.349-3.838-0.14l-1.853-1.039l-1.432,2.369l15.295,8.581
			l1.354-2.414l-1.932-1.084c-1.449-0.813-2.899-1.626-2.572-2.396c0.282-0.689,2.022-3.417,2.249-3.819l11.706-21.059
			c1.671-2.979,1.671-2.979,4.016-1.875l2.747,1.33L96.861,23.22z"/>
		<path fill="#FFFFFF" d="M0,0v10.062l1.293,0.091c1.108,0.093,1.199-0.276,1.938-2.583c1.2-3.692,2.124-4.616,7.385-4.616
			c1.569,0,2.492,0,3.784,0.185l-0.091,32.676l-6.093,0.276l0.092,2.678h18.554v-2.769l-6.278-0.277l0.093-32.677h2.401
			c2.03,0,4.984,0,5.814,0.462c0.923,0.46,1.661,2.03,2.4,4.062c0.923,2.676,1.107,2.769,3.6,2.676L34.801,0l-1.846,0.093L0,0z"/>
	</g>
	<path fill="#FFFFFF" stroke="#000000" stroke-width="2.4" d="M80.193,60.219"/>
	<path fill="#FFFFFF" stroke="#000000" stroke-width="3.2" d="M18.758,44.455"/>
	<path fill="#FFFFFF" stroke="#000000" stroke-width="2" d="M124.857,105.521"/>
	<path fill="#FFFFFF" stroke="#000000" stroke-width="4" d="M140.209,166.724"/>
	<g>
		<path fill="#FFFFFF" d="M114.07,203.354c1.56-3.061,0.41-6.366-2.469-7.832c-2.789-1.422-5.918,0.271-7.248,2.88
			c-1.283,2.52-1.041,6.271,2.108,7.876C109.34,207.743,112.649,206.143,114.07,203.354"/>
	</g>
</g>
<g id="Layer_2">
</g>
</svg>
